<?xml version="1.0" encoding="us-ascii" standalone="no"?><svg xmlns="http://www.w3.org/2000/svg" xmlns:xlink="http://www.w3.org/1999/xlink" contentStyleType="text/css" height="896px" preserveAspectRatio="none" style="width:1169px;height:896px;background:#FFFFFF;" version="1.1" viewBox="0 0 1169 896" width="1169px" zoomAndPan="magnify"><defs/><g><!--cluster 6ebb7423072c5943f52c11274fd71b0b--><g id="cluster_6ebb7423072c5943f52c11274fd71b0b"><polygon fill="none" points="16,16,26,6,368,6,368,163.48,358,173.48,16,173.48,16,16" style="stroke:#181818;stroke-width:1.0;"/><line style="stroke:#181818;stroke-width:1.0;" x1="358" x2="368" y1="16" y2="6"/><line style="stroke:#181818;stroke-width:1.0;" x1="16" x2="358" y1="16" y2="16"/><line style="stroke:#181818;stroke-width:1.0;" x1="358" x2="358" y1="16" y2="173.48"/><text fill="#000000" font-family="sans-serif" font-size="14" font-weight="bold" lengthAdjust="spacing" textLength="83" x="146.5" y="31.9951">Dynamodb</text></g><!--cluster ba39a5f0aa547715c4df694144393752--><g id="cluster_ba39a5f0aa547715c4df694144393752"><polygon fill="none" points="482,16,492,6,840,6,840,163.48,830,173.48,482,173.48,482,16" style="stroke:#181818;stroke-width:1.0;"/><line style="stroke:#181818;stroke-width:1.0;" x1="830" x2="840" y1="16" y2="6"/><line style="stroke:#181818;stroke-width:1.0;" x1="482" x2="830" y1="16" y2="16"/><line style="stroke:#181818;stroke-width:1.0;" x1="830" x2="830" y1="16" y2="173.48"/><text fill="#000000" font-family="sans-serif" font-size="14" font-weight="bold" lengthAdjust="spacing" textLength="92" x="611" y="31.9951">Apigateway</text></g><!--cluster ef4ba2f338cdf4b615ed280ff0b2777d--><g id="cluster_ef4ba2f338cdf4b615ed280ff0b2777d"><polygon fill="none" points="864,16,874,6,1152,6,1152,163.48,1142,173.48,864,173.48,864,16" style="stroke:#181818;stroke-width:1.0;"/><line style="stroke:#181818;stroke-width:1.0;" x1="1142" x2="1152" y1="16" y2="6"/><line style="stroke:#181818;stroke-width:1.0;" x1="864" x2="1142" y1="16" y2="16"/><line style="stroke:#181818;stroke-width:1.0;" x1="1142" x2="1142" y1="16" y2="173.48"/><text fill="#000000" font-family="sans-serif" font-size="14" font-weight="bold" lengthAdjust="spacing" textLength="29" x="989.5" y="31.9951">Sqs</text></g><!--cluster 04a7da3c5b04cad85da1eebb92315b8b--><g id="cluster_04a7da3c5b04cad85da1eebb92315b8b"><polygon fill="none" points="227,207.48,237,197.48,625,197.48,625,869.42,615,879.42,227,879.42,227,207.48" style="stroke:#181818;stroke-width:1.0;"/><line style="stroke:#181818;stroke-width:1.0;" x1="615" x2="625" y1="207.48" y2="197.48"/><line style="stroke:#181818;stroke-width:1.0;" x1="227" x2="615" y1="207.48" y2="207.48"/><line style="stroke:#181818;stroke-width:1.0;" x1="615" x2="615" y1="207.48" y2="879.42"/><text fill="#000000" font-family="sans-serif" font-size="14" font-weight="bold" lengthAdjust="spacing" textLength="61" x="391.5" y="223.4751">Lambda</text></g><!--entity 7eb5362cba2854a1d16b4ff44ffd8fd0--><g id="elem_7eb5362cba2854a1d16b4ff44ffd8fd0"><rect fill="#F1F1F1" height="111.4844" rx="2.5" ry="2.5" style="stroke:#181818;stroke-width:0.5;" width="321" x="31.5" y="46"/><rect fill="#F1F1F1" height="10" style="stroke:#181818;stroke-width:0.5;" width="15" x="332.5" y="51"/><rect fill="#F1F1F1" height="2" style="stroke:#181818;stroke-width:0.5;" width="4" x="330.5" y="53"/><rect fill="#F1F1F1" height="2" style="stroke:#181818;stroke-width:0.5;" width="4" x="330.5" y="57"/><text fill="#000000" font-family="sans-serif" font-size="14" font-weight="bold" lengthAdjust="spacing" textLength="281" x="46.5" y="78.9951">dynamodb_${var.dynamodb_name}</text><text fill="#000000" font-family="sans-serif" font-size="14" lengthAdjust="spacing" textLength="4" x="46.5" y="95.292">&#160;</text><text fill="#000000" font-family="sans-serif" font-size="14" lengthAdjust="spacing" textLength="176" x="46.5" y="111.5889">terraform name: ddbtable</text><text fill="#000000" font-family="sans-serif" font-size="14" lengthAdjust="spacing" textLength="254" x="46.5" y="127.8857">terraform type: aws_dynamodb_table</text><text fill="#000000" font-family="sans-serif" font-size="14" lengthAdjust="spacing" textLength="4" x="46.5" y="144.1826">&#160;</text></g><!--entity b6cb6e39c038d0257d4d58b63ad85803--><g id="elem_b6cb6e39c038d0257d4d58b63ad85803"><rect fill="#F1F1F1" height="111.4844" rx="2.5" ry="2.5" style="stroke:#181818;stroke-width:0.5;" width="325" x="498.5" y="46"/><rect fill="#F1F1F1" height="10" style="stroke:#181818;stroke-width:0.5;" width="15" x="803.5" y="51"/><rect fill="#F1F1F1" height="2" style="stroke:#181818;stroke-width:0.5;" width="4" x="801.5" y="53"/><rect fill="#F1F1F1" height="2" style="stroke:#181818;stroke-width:0.5;" width="4" x="801.5" y="57"/><text fill="#000000" font-family="sans-serif" font-size="14" font-weight="bold" lengthAdjust="spacing" textLength="274" x="513.5" y="78.9951">apigateway_${var.gateway_name}</text><text fill="#000000" font-family="sans-serif" font-size="14" lengthAdjust="spacing" textLength="4" x="513.5" y="95.292">&#160;</text><text fill="#000000" font-family="sans-serif" font-size="14" lengthAdjust="spacing" textLength="165" x="513.5" y="111.5889">terraform name: lambda</text><text fill="#000000" font-family="sans-serif" font-size="14" lengthAdjust="spacing" textLength="285" x="513.5" y="127.8857">terraform type: aws_api_gateway_rest_api</text><text fill="#000000" font-family="sans-serif" font-size="14" lengthAdjust="spacing" textLength="4" x="513.5" y="144.1826">&#160;</text></g><!--entity 42efc6f526f7569bd5c4d3d207109b23--><g id="elem_42efc6f526f7569bd5c4d3d207109b23"><rect fill="#F1F1F1" height="111.4844" rx="2.5" ry="2.5" style="stroke:#181818;stroke-width:0.5;" width="257" x="879.5" y="46"/><rect fill="#F1F1F1" height="10" style="stroke:#181818;stroke-width:0.5;" width="15" x="1116.5" y="51"/><rect fill="#F1F1F1" height="2" style="stroke:#181818;stroke-width:0.5;" width="4" x="1114.5" y="53"/><rect fill="#F1F1F1" height="2" style="stroke:#181818;stroke-width:0.5;" width="4" x="1114.5" y="57"/><text fill="#000000" font-family="sans-serif" font-size="14" font-weight="bold" lengthAdjust="spacing" textLength="173" x="894.5" y="78.9951">sqs_${var.sqs_name}</text><text fill="#000000" font-family="sans-serif" font-size="14" lengthAdjust="spacing" textLength="4" x="894.5" y="95.292">&#160;</text><text fill="#000000" font-family="sans-serif" font-size="14" lengthAdjust="spacing" textLength="202" x="894.5" y="111.5889">terraform name: filterit-queue</text><text fill="#000000" font-family="sans-serif" font-size="14" lengthAdjust="spacing" textLength="217" x="894.5" y="127.8857">terraform type: aws_sqs_queue</text><text fill="#000000" font-family="sans-serif" font-size="14" lengthAdjust="spacing" textLength="4" x="894.5" y="144.1826">&#160;</text></g><!--entity a10579688900c460e9b3e389f38fda9e--><g id="elem_a10579688900c460e9b3e389f38fda9e"><rect fill="#F1F1F1" height="111.4844" rx="2.5" ry="2.5" style="stroke:#181818;stroke-width:0.5;" width="293" x="279.5" y="237.48"/><rect fill="#F1F1F1" height="10" style="stroke:#181818;stroke-width:0.5;" width="15" x="552.5" y="242.48"/><rect fill="#F1F1F1" height="2" style="stroke:#181818;stroke-width:0.5;" width="4" x="550.5" y="244.48"/><rect fill="#F1F1F1" height="2" style="stroke:#181818;stroke-width:0.5;" width="4" x="550.5" y="248.48"/><text fill="#000000" font-family="sans-serif" font-size="14" font-weight="bold" lengthAdjust="spacing" textLength="232" x="294.5" y="270.4751">lambda_filterit-lambda_upload</text><text fill="#000000" font-family="sans-serif" font-size="14" lengthAdjust="spacing" textLength="4" x="294.5" y="286.772">&#160;</text><text fill="#000000" font-family="sans-serif" font-size="14" lengthAdjust="spacing" textLength="219" x="294.5" y="303.0689">terraform name: lambda_upload</text><text fill="#000000" font-family="sans-serif" font-size="14" lengthAdjust="spacing" textLength="253" x="294.5" y="319.3657">terraform type: aws_lambda_function</text><text fill="#000000" font-family="sans-serif" font-size="14" lengthAdjust="spacing" textLength="4" x="294.5" y="335.6626">&#160;</text></g><!--entity 3aecaf518638791cdb7db1c6d4555ae9--><g id="elem_3aecaf518638791cdb7db1c6d4555ae9"><rect fill="#F1F1F1" height="111.4844" rx="2.5" ry="2.5" style="stroke:#181818;stroke-width:0.5;" width="293" x="279.5" y="408.97"/><rect fill="#F1F1F1" height="10" style="stroke:#181818;stroke-width:0.5;" width="15" x="552.5" y="413.97"/><rect fill="#F1F1F1" height="2" style="stroke:#181818;stroke-width:0.5;" width="4" x="550.5" y="415.97"/><rect fill="#F1F1F1" height="2" style="stroke:#181818;stroke-width:0.5;" width="4" x="550.5" y="419.97"/><text fill="#000000" font-family="sans-serif" font-size="14" font-weight="bold" lengthAdjust="spacing" textLength="215" x="294.5" y="441.9651">lambda_filterit-lambda_feed</text><text fill="#000000" font-family="sans-serif" font-size="14" lengthAdjust="spacing" textLength="4" x="294.5" y="458.262">&#160;</text><text fill="#000000" font-family="sans-serif" font-size="14" lengthAdjust="spacing" textLength="203" x="294.5" y="474.5589">terraform name: lambda_feed</text><text fill="#000000" font-family="sans-serif" font-size="14" lengthAdjust="spacing" textLength="253" x="294.5" y="490.8557">terraform type: aws_lambda_function</text><text fill="#000000" font-family="sans-serif" font-size="14" lengthAdjust="spacing" textLength="4" x="294.5" y="507.1526">&#160;</text></g><!--entity 65213ae4b94052e6bce561e55c1b45a0--><g id="elem_65213ae4b94052e6bce561e55c1b45a0"><rect fill="#F1F1F1" height="111.4844" rx="2.5" ry="2.5" style="stroke:#181818;stroke-width:0.5;" width="293" x="316.5" y="580.45"/><rect fill="#F1F1F1" height="10" style="stroke:#181818;stroke-width:0.5;" width="15" x="589.5" y="585.45"/><rect fill="#F1F1F1" height="2" style="stroke:#181818;stroke-width:0.5;" width="4" x="587.5" y="587.45"/><rect fill="#F1F1F1" height="2" style="stroke:#181818;stroke-width:0.5;" width="4" x="587.5" y="591.45"/><text fill="#000000" font-family="sans-serif" font-size="14" font-weight="bold" lengthAdjust="spacing" textLength="251" x="331.5" y="613.4451">lambda_filterit-lambda_progress</text><text fill="#000000" font-family="sans-serif" font-size="14" lengthAdjust="spacing" textLength="4" x="331.5" y="629.742">&#160;</text><text fill="#000000" font-family="sans-serif" font-size="14" lengthAdjust="spacing" textLength="234" x="331.5" y="646.0389">terraform name: lambda_progress</text><text fill="#000000" font-family="sans-serif" font-size="14" lengthAdjust="spacing" textLength="253" x="331.5" y="662.3357">terraform type: aws_lambda_function</text><text fill="#000000" font-family="sans-serif" font-size="14" lengthAdjust="spacing" textLength="4" x="331.5" y="678.6326">&#160;</text></g><!--entity c2fd7c64096f9c9ec56e669fb8259036--><g id="elem_c2fd7c64096f9c9ec56e669fb8259036"><rect fill="#F1F1F1" height="111.4844" rx="2.5" ry="2.5" style="stroke:#181818;stroke-width:0.5;" width="293" x="242.5" y="751.94"/><rect fill="#F1F1F1" height="10" style="stroke:#181818;stroke-width:0.5;" width="15" x="515.5" y="756.94"/><rect fill="#F1F1F1" height="2" style="stroke:#181818;stroke-width:0.5;" width="4" x="513.5" y="758.94"/><rect fill="#F1F1F1" height="2" style="stroke:#181818;stroke-width:0.5;" width="4" x="513.5" y="762.94"/><text fill="#000000" font-family="sans-serif" font-size="14" font-weight="bold" lengthAdjust="spacing" textLength="229" x="257.5" y="784.9351">lambda_filterit-lambda_queue</text><text fill="#000000" font-family="sans-serif" font-size="14" lengthAdjust="spacing" textLength="4" x="257.5" y="801.232">&#160;</text><text fill="#000000" font-family="sans-serif" font-size="14" lengthAdjust="spacing" textLength="217" x="257.5" y="817.5289">terraform name: lambda_queue</text><text fill="#000000" font-family="sans-serif" font-size="14" lengthAdjust="spacing" textLength="253" x="257.5" y="833.8257">terraform type: aws_lambda_function</text><text fill="#000000" font-family="sans-serif" font-size="14" lengthAdjust="spacing" textLength="4" x="257.5" y="850.1226">&#160;</text></g><!--link 7eb5362cba2854a1d16b4ff44ffd8fd0 to a10579688900c460e9b3e389f38fda9e--><g id="link_7eb5362cba2854a1d16b4ff44ffd8fd0_a10579688900c460e9b3e389f38fda9e"><path codeLine="59" d="M260,157.8 C290.76,182.71 327.05,212.1 357.83,237.03 " fill="none" id="7eb5362cba2854a1d16b4ff44ffd8fd0-a10579688900c460e9b3e389f38fda9e" style="stroke:#181818;stroke-width:1.0;"/></g><!--link 7eb5362cba2854a1d16b4ff44ffd8fd0 to c2fd7c64096f9c9ec56e669fb8259036--><g id="link_7eb5362cba2854a1d16b4ff44ffd8fd0_c2fd7c64096f9c9ec56e669fb8259036"><path codeLine="60" d="M177.31,157.94 C175.1,168.35 173.17,179.19 172,189.48 C146.42,414.3 126.94,504.71 254,691.94 C269.03,714.08 289.43,734.42 309.82,751.63 " fill="none" id="7eb5362cba2854a1d16b4ff44ffd8fd0-c2fd7c64096f9c9ec56e669fb8259036" style="stroke:#181818;stroke-width:1.0;"/></g><!--link 7eb5362cba2854a1d16b4ff44ffd8fd0 to 3aecaf518638791cdb7db1c6d4555ae9--><g id="link_7eb5362cba2854a1d16b4ff44ffd8fd0_3aecaf518638791cdb7db1c6d4555ae9"><path codeLine="61" d="M196.98,157.96 C204.1,211.12 221.21,291.67 262,348.97 C278.42,372.04 301.01,392.05 324.18,408.61 " fill="none" id="7eb5362cba2854a1d16b4ff44ffd8fd0-3aecaf518638791cdb7db1c6d4555ae9" style="stroke:#181818;stroke-width:1.0;"/></g><!--link 7eb5362cba2854a1d16b4ff44ffd8fd0 to 65213ae4b94052e6bce561e55c1b45a0--><g id="link_7eb5362cba2854a1d16b4ff44ffd8fd0_65213ae4b94052e6bce561e55c1b45a0"><path codeLine="62" d="M184.56,157.96 C175.98,245.79 172.96,417.86 262,520.45 C282.48,544.05 309.06,563.89 336.14,580.09 " fill="none" id="7eb5362cba2854a1d16b4ff44ffd8fd0-65213ae4b94052e6bce561e55c1b45a0" style="stroke:#181818;stroke-width:1.0;"/></g><!--link b6cb6e39c038d0257d4d58b63ad85803 to 3aecaf518638791cdb7db1c6d4555ae9--><g id="link_b6cb6e39c038d0257d4d58b63ad85803_3aecaf518638791cdb7db1c6d4555ae9"><path codeLine="63" d="M655.76,157.97 C648.39,211.13 630.94,291.69 590,348.97 C573.53,372.01 550.93,392.01 527.76,408.57 " fill="none" id="b6cb6e39c038d0257d4d58b63ad85803-3aecaf518638791cdb7db1c6d4555ae9" style="stroke:#181818;stroke-width:1.0;"/></g><!--link b6cb6e39c038d0257d4d58b63ad85803 to a10579688900c460e9b3e389f38fda9e--><g id="link_b6cb6e39c038d0257d4d58b63ad85803_a10579688900c460e9b3e389f38fda9e"><path codeLine="64" d="M592.71,157.8 C561.81,182.71 525.38,212.1 494.46,237.03 " fill="none" id="b6cb6e39c038d0257d4d58b63ad85803-a10579688900c460e9b3e389f38fda9e" style="stroke:#181818;stroke-width:1.0;"/></g><!--link b6cb6e39c038d0257d4d58b63ad85803 to c2fd7c64096f9c9ec56e669fb8259036--><g id="link_b6cb6e39c038d0257d4d58b63ad85803_c2fd7c64096f9c9ec56e669fb8259036"><path codeLine="65" d="M685.37,157.88 C688.95,168.19 692.08,179.02 694,189.48 C734.72,411.06 764.64,513.58 627,691.94 C603.67,722.17 570.34,744.87 535.99,761.75 " fill="none" id="b6cb6e39c038d0257d4d58b63ad85803-c2fd7c64096f9c9ec56e669fb8259036" style="stroke:#181818;stroke-width:1.0;"/></g><!--link b6cb6e39c038d0257d4d58b63ad85803 to 65213ae4b94052e6bce561e55c1b45a0--><g id="link_b6cb6e39c038d0257d4d58b63ad85803_65213ae4b94052e6bce561e55c1b45a0"><path codeLine="66" d="M667.72,157.97 C675.19,242.82 678.08,407.29 607,520.45 C592.72,543.19 572.31,563.36 551.32,580.2 " fill="none" id="b6cb6e39c038d0257d4d58b63ad85803-65213ae4b94052e6bce561e55c1b45a0" style="stroke:#181818;stroke-width:1.0;"/></g><!--link a10579688900c460e9b3e389f38fda9e to c2fd7c64096f9c9ec56e669fb8259036--><g id="link_a10579688900c460e9b3e389f38fda9e_c2fd7c64096f9c9ec56e669fb8259036"><path codeLine="67" d="M315.71,349.26 C294.12,365.4 274.36,385.24 262,408.97 C242.62,446.17 271.4,679.74 277,691.94 C287.1,713.95 303.27,734.25 320.22,751.46 " fill="none" id="a10579688900c460e9b3e389f38fda9e-c2fd7c64096f9c9ec56e669fb8259036" style="stroke:#181818;stroke-width:1.0;"/></g><!--link a10579688900c460e9b3e389f38fda9e to 3aecaf518638791cdb7db1c6d4555ae9--><g id="link_a10579688900c460e9b3e389f38fda9e_3aecaf518638791cdb7db1c6d4555ae9"><path codeLine="68" d="M426,349.25 C426,368.29 426,389.63 426,408.67 " fill="none" id="a10579688900c460e9b3e389f38fda9e-3aecaf518638791cdb7db1c6d4555ae9" style="stroke:#181818;stroke-width:1.0;"/></g><!--link a10579688900c460e9b3e389f38fda9e to 65213ae4b94052e6bce561e55c1b45a0--><g id="link_a10579688900c460e9b3e389f38fda9e_65213ae4b94052e6bce561e55c1b45a0"><path codeLine="69" d="M536.29,349.26 C557.88,365.4 577.64,385.24 590,408.97 C612.89,452.91 610.11,475.17 590,520.45 C579.93,543.13 562.91,563.22 544.56,580 " fill="none" id="a10579688900c460e9b3e389f38fda9e-65213ae4b94052e6bce561e55c1b45a0" style="stroke:#181818;stroke-width:1.0;"/></g><!--link 3aecaf518638791cdb7db1c6d4555ae9 to c2fd7c64096f9c9ec56e669fb8259036--><g id="link_3aecaf518638791cdb7db1c6d4555ae9_c2fd7c64096f9c9ec56e669fb8259036"><path codeLine="70" d="M344.44,520.91 C326.09,537.69 309.07,557.78 299,580.45 C278.89,625.73 282.82,645.1 299,691.94 C306.44,713.47 319.77,734.05 333.93,751.68 " fill="none" id="3aecaf518638791cdb7db1c6d4555ae9-c2fd7c64096f9c9ec56e669fb8259036" style="stroke:#181818;stroke-width:1.0;"/></g><!--link 3aecaf518638791cdb7db1c6d4555ae9 to 65213ae4b94052e6bce561e55c1b45a0--><g id="link_3aecaf518638791cdb7db1c6d4555ae9_65213ae4b94052e6bce561e55c1b45a0"><path codeLine="71" d="M438.01,520.74 C442.17,539.78 446.83,561.11 450.98,580.15 " fill="none" id="3aecaf518638791cdb7db1c6d4555ae9-65213ae4b94052e6bce561e55c1b45a0" style="stroke:#181818;stroke-width:1.0;"/></g><!--link 65213ae4b94052e6bce561e55c1b45a0 to c2fd7c64096f9c9ec56e669fb8259036--><g id="link_65213ae4b94052e6bce561e55c1b45a0_c2fd7c64096f9c9ec56e669fb8259036"><path codeLine="72" d="M438.97,692.22 C430.66,711.26 421.35,732.59 413.03,751.64 " fill="none" id="65213ae4b94052e6bce561e55c1b45a0-c2fd7c64096f9c9ec56e669fb8259036" style="stroke:#181818;stroke-width:1.0;"/></g><!--SRC=[bPH9Rzim48Nl-XL2q9E15Do6Isy5Ukojnw8mXfnXOC2M74jk6WJvxvNafKbXcyf1aBWzVM_uCBXUjq-RrPzLyr0rBN5zz-svmKrByQx6hhOSepDA2wSI1ACpg2IbSYQJar74-gMgKxlPjWqtVUquWhOgHLGU34gIDfgSpV2GpoJgdzLYGKVzvQUNtxZxV1uEBtvTBAggvzqESxlRrEFKbveezXZN_6QXVzuE2_ZKBS_73rkgNzNhqSVNxUe1Utx2vyb9H1qGia04uvo4P2ZROAGnEcW7whsJQ5Eqh4CIsfDGuCWG-6WraWSlzEG4ptyuUZcDhbfPuoOINZGoY2rFvtVSzUF4Mpi_7hl91sSpb3ThxHCDdrO2a_8YPn6LSuxU-p2ASxB3hTdim8P8eszDIZWfGbG77zrZTpGmVbs5pwlrCBNgxn_tlBzy6-Fvm-eRyk-JwGbU67I4Ea4K9esb99GyH2meBI7w_-A4Ke0BrliWH39MS8YQjGzP3s72m1FyeQJBCznnlD-kMwJhTt3SSD75INBVf7xLDgENVr0QEM46wQtsBiX4qL6KoP810EHm2oeptq8QbpyEP4790Sh4O0GejZ4nMCa0IKO3A6u1RNVjmn2sxWRKQSl7mP8QcaIoHWIRGmgSmBAr8KUl80XjRu5D8Rf1TJs25v1Ugs9ZkgVxOjpcgPHSprCffMoUIYaQLR7DpMAPfLAixYoLOdLdgHJhKkmyirXcgHIhEqkbwAZOjcOvcgLIP2bsh3aiVm40]--></g></svg>